<svg fill="none" xmlns="http://www.w3.org/2000/svg" viewBox="0 0 158 35"><path fill="#4D6A79" d="M11.332 12.503V1.576H.405v10.927h10.927zM30.113 32.825V21.898H19.195v10.927h10.918zM31.135 11.244L28.863.564l-10.68 2.272 2.271 10.68 10.68-2.272zM11.332 32.825V21.898H.405v10.927h10.927zM47.706 25.314v-2.236h-2.932v2.236h-.45v-4.772h.45v2.13h2.932v-2.13h.449v4.772h-.45zM50.567 22.347c-.581 0-1.039.423-1.039 1.391 0 .995.52 1.304 1.03 1.304.502 0 1.048-.326 1.048-1.356-.009-1.013-.537-1.339-1.039-1.339zm-.026 3.047c-.828 0-1.444-.617-1.444-1.655 0-1.004.546-1.726 1.47-1.726 1.004 0 1.444.854 1.453 1.673 0 1.206-.775 1.708-1.48 1.708zM55.49 24.602c-.194.413-.564.8-1.295.8-.916 0-1.48-.677-1.48-1.672 0-1.057.644-1.717 1.55-1.717.687 0 1.057.36 1.224.81l-.37.088c-.14-.361-.492-.537-.871-.537-.74 0-1.092.634-1.092 1.338 0 .722.326 1.339 1.057 1.339.405 0 .687-.185.871-.537l.405.088zM58.227 25.314v-2.042c0-.405-.096-.89-.757-.89-.484 0-.713.273-.81.45-.132.246-.132.519-.132 1.082v1.392h-.405v-4.773h.405v2.07c.106-.212.37-.582 1.004-.582.14 0 .607.027.89.397.184.246.21.51.21 1.074v1.822h-.405zM59.857 24.399c.053.22.299.634.898.634.625 0 .827-.344.827-.625 0-.273-.158-.467-.695-.582l-.379-.079c-.502-.105-.836-.334-.836-.801 0-.115.017-.423.273-.652.22-.202.599-.273.88-.273.097 0 .493 0 .793.212a.906.906 0 0 1 .352.52l-.379.105c-.07-.37-.458-.484-.783-.484-.652 0-.74.343-.74.537 0 .378.396.466.678.52l.335.07c.563.114.889.44.889.942 0 .37-.3.968-1.206.968-.273 0-.951-.044-1.295-.863l.388-.15zM65.492 24.602c-.194.413-.564.8-1.294.8-.916 0-1.48-.677-1.48-1.672 0-1.057.643-1.717 1.55-1.717.687 0 1.056.36 1.224.81l-.37.088c-.14-.361-.493-.537-.872-.537-.74 0-1.092.634-1.092 1.338 0 .722.326 1.339 1.057 1.339.405 0 .687-.185.872-.537l.405.088zM68.23 25.314v-2.042c0-.405-.097-.89-.757-.89-.484 0-.713.273-.81.45-.132.246-.132.519-.132 1.082v1.392h-.405v-4.773h.405v2.07c.106-.212.37-.582 1.004-.582.14 0 .607.027.89.397.184.246.21.51.21 1.074v1.822h-.405zM71.85 25.315v-.582c-.177.397-.476.652-1.031.652-.45 0-.854-.238-.995-.687-.07-.22-.088-.528-.088-1.03v-1.585h.405v1.673c0 .396.009.599.053.784.052.193.193.475.669.475.158 0 .51-.009.766-.36.194-.274.22-.608.22-.943v-1.629h.396v3.223h-.396M73.355 25.314v-4.772h.404v4.772h-.404zM77.132 23.377c-.097-.827-.652-1.003-1.004-1.003-.687 0-.986.554-1.03 1.003h2.034zm-2.043.423c0 .484.203 1.233 1.083 1.233.29 0 .74-.062 1.048-.678l.37.105c-.15.335-.484.934-1.4.934-1.312 0-1.541-1.162-1.541-1.726 0-1.1.74-1.664 1.488-1.664.916 0 1.453.801 1.453 1.638v.061h-2.5v.097zM81.068 22.426v2.889h-.396v-2.889h-.713v-.334h.713v-.898c0-.29.035-.749.713-.749.158 0 .264.018.414.044v.396c-.07-.026-.194-.088-.388-.088-.29 0-.343.22-.343.45v.845h.73v.334h-.73zM84.15 21.379v-.625h.414v.625h-.414zm-1.162 0v-.625h.413v.625h-.413zm1.646 3.936v-.582c-.176.397-.475.652-1.03.652-.449 0-.854-.238-.995-.687-.07-.22-.088-.528-.088-1.03v-1.585h.405v1.673c0 .396.009.599.053.784.053.193.194.475.669.475.159 0 .51-.009.766-.36.194-.274.22-.608.22-.943v-1.629h.396v3.223h-.396M86.536 22.092v.51c.167-.378.484-.563.89-.563.052 0 .158 0 .272.018v.36c-.08-.017-.158-.017-.255-.017-.687 0-.907.51-.907 1.153v1.761h-.396v-3.222h.396zM91.74 20.938v4.377h-.45v-4.377h-1.496v-.396h3.46v.396H91.74zM95.385 23.377c-.097-.827-.652-1.003-1.004-1.003-.687 0-.986.554-1.03 1.003h2.034zm-2.043.423c0 .484.203 1.233 1.083 1.233.29 0 .74-.062 1.048-.678l.37.105c-.15.335-.484.934-1.4.934-1.312 0-1.541-1.162-1.541-1.726 0-1.1.74-1.664 1.488-1.664.916 0 1.453.801 1.453 1.638v.061h-2.5v.097zM99.286 24.602c-.194.413-.564.8-1.294.8-.916 0-1.48-.677-1.48-1.672 0-1.057.643-1.717 1.55-1.717.687 0 1.056.36 1.224.81l-.37.088c-.14-.361-.493-.537-.872-.537-.74 0-1.091.634-1.091 1.338 0 .722.325 1.339 1.065 1.339.405 0 .678-.185.872-.537l.396.088zM102.033 25.314v-2.042c0-.405-.106-.89-.758-.89-.484 0-.713.273-.81.45-.132.246-.132.519-.132 1.082v1.392h-.405v-4.773h.405v2.07c.106-.212.37-.582 1.004-.582.141 0 .608.027.889.397.185.246.212.51.212 1.074v1.822h-.405zM105.652 25.314v-1.672c0-.432 0-.687-.071-.881-.123-.308-.449-.379-.669-.379-.669 0-.968.502-.968 1.092v1.85h-.397V22.1h.397v.572c.026-.088.229-.643 1.012-.643.599 0 .881.335.978.555.105.229.114.458.114.907v1.831l-.396-.009zM107.157 25.314v-3.222h.396v3.223h-.396zm0-3.98v-.616h.396v.617h-.396zM110.97 25.314l-1.233-1.672-.686.651v1.013h-.397v-4.773h.397v3.24l1.813-1.699h.502l-1.347 1.286 1.444 1.937h-.493M116.077 25.315v-.582c-.177.397-.485.652-1.031.652-.449 0-.854-.238-.995-.687-.07-.22-.088-.528-.088-1.03v-1.585h.405v1.673c0 .396.009.599.053.784.053.193.194.475.669.475.159 0 .511-.009.766-.36.194-.274.221-.608.221-.943v-1.629h.396v3.223h-.396M119.696 25.314v-1.672c0-.432 0-.687-.08-.881-.123-.308-.449-.379-.669-.379-.669 0-.968.502-.968 1.092v1.85h-.396V22.1h.396v.572c.026-.088.229-.643 1.012-.643.599 0 .881.335.978.555.105.229.114.458.114.907v1.831l-.387-.009zM122.39 25.006c.519 0 .942-.36.942-1.25v-.176c0-1.065-.599-1.197-.916-1.197-.607 0-.977.51-.977 1.311-.018.96.449 1.312.951 1.312zm.924.309v-.582c-.149.423-.563.652-.995.652-.801 0-1.329-.73-1.329-1.69s.537-1.674 1.391-1.674c.423 0 .81.22.933.582v-2.06h.397v4.772h-.397zM130.632 25.314h-.361l-1.145-3.856-1.136 3.857h-.361l-1.418-4.773h.485l1.118 3.962 1.136-3.962h.308l1.171 3.962 1.092-3.962h.449l-1.338 4.772zM132.393 25.314v-3.222h.396v3.223h-.396zm0-3.98v-.616h.396v.617h-.396zM134.285 22.092v.51c.168-.378.485-.563.89-.563.053 0 .158 0 .273.018v.36c-.08-.017-.159-.017-.256-.017-.686 0-.907.51-.907 1.153v1.761h-.396v-3.222h.396zM136.76 24.628c0 .184.026.396.264.396.167 0 .326-.115.449-.203v.405c-.088.07-.255.15-.537.15-.115 0-.414-.009-.511-.29-.044-.115-.044-.353-.044-.529v-2.13h-.678v-.335h.678v-1.374h.388v1.374h.713v.334h-.713v2.202M138.283 24.399c.053.22.299.634.898.634.625 0 .828-.344.828-.625 0-.273-.159-.467-.696-.582l-.378-.079c-.502-.105-.837-.334-.837-.801a.87.87 0 0 1 .273-.652c.22-.202.599-.273.88-.273.097 0 .494 0 .793.212a.906.906 0 0 1 .352.52l-.378.105c-.071-.37-.458-.484-.784-.484-.652 0-.74.343-.74.537 0 .378.396.466.678.52l.335.07c.563.114.889.44.889.942 0 .37-.299.968-1.206.968-.273 0-.951-.044-1.294-.863l.387-.15zM143.918 24.602c-.194.413-.563.8-1.294.8-.916 0-1.479-.677-1.479-1.672 0-1.057.642-1.717 1.549-1.717.687 0 1.057.36 1.224.81l-.37.088c-.141-.361-.493-.537-.871-.537-.74 0-1.092.634-1.092 1.338 0 .722.326 1.339 1.065 1.339.405 0 .687-.185.872-.537l.396.088zM146.665 25.314v-2.042c0-.405-.105-.89-.757-.89-.484 0-.713.273-.81.45-.132.246-.132.519-.132 1.082v1.392h-.405v-4.773h.405v2.07c.106-.212.37-.582 1.004-.582.141 0 .607.027.889.397.185.246.211.51.211 1.074v1.822h-.405zM150.126 23.615l-.203.053c-1.091.29-1.567.36-1.567.828 0 .22.176.537.652.537.396 0 .871-.238 1.03-.608.062-.132.088-.273.088-.564v-.246zm.784 1.7c-.537 0-.784-.133-.784-.59-.07.246-.44.651-1.145.651-.686 0-1.012-.423-1.012-.88 0-.643.546-.872 1.611-1.119l.537-.123v-.247c0-.308-.158-.651-.748-.651-.661 0-.872.255-.872.775l-.44-.07c.079-.652.519-1.057 1.268-1.057.563 0 1.18.167 1.18.977v1.409c0 .431.017.599.413.599h.071v.316h-.079M152.406 22.426v2.889h-.396v-2.889h-.713v-.334h.713v-.898c0-.29.035-.749.713-.749.159 0 .264.018.414.044v.396c-.079-.026-.194-.088-.387-.088-.291 0-.344.22-.344.45v.845h.731v.334h-.731zM154.511 24.628c0 .184.026.396.264.396.158 0 .326-.115.449-.203v.405c-.088.07-.255.15-.537.15-.115 0-.414-.009-.52-.29-.035-.115-.044-.353-.044-.529v-2.13h-.678v-.335h.678v-1.374h.388v1.374h.713v.334h-.713v2.202zM47.89 31.047c0 1.056-.395 1.902-1.787 1.902-.466 0-1.787-.106-1.787-1.805v-3.09h.449v3.213c0 1.065.792 1.268 1.347 1.268.854 0 1.32-.396 1.32-1.382v-3.1h.45v2.994M51.14 32.825v-1.673c0-.431 0-.687-.07-.88-.124-.308-.45-.379-.67-.379-.67 0-.969.502-.969 1.092v1.849h-.396v-3.223h.396v.564c.027-.088.23-.643 1.013-.643.599 0 .88.335.977.555.106.229.115.458.115.907v1.831h-.396zM52.645 32.825v-3.222h.397v3.222h-.397zm0-3.98v-.616h.397v.617h-.397zM56.387 29.603l-1.233 3.222h-.325l-1.119-3.222h.397l.889 2.624.995-2.624h.396zM59.328 30.888c-.097-.828-.651-1.004-1.004-1.004-.686 0-.986.555-1.03 1.004h2.034zm-2.034.423c0 .484.203 1.233 1.083 1.233.29 0 .74-.062 1.048-.678l.37.105c-.15.335-.484.933-1.4.933-1.312 0-1.541-1.162-1.541-1.725 0-1.1.74-1.664 1.488-1.664.916 0 1.453.8 1.453 1.637v.062h-2.5v.097zM61.072 29.603v.51c.167-.378.484-.563.889-.563.053 0 .158 0 .273.018v.36c-.08-.017-.159-.017-.256-.017-.686 0-.907.51-.907 1.153v1.761h-.396v-3.222h.397zM63 31.91c.053.22.3.634.898.634.625 0 .827-.344.827-.625 0-.273-.158-.467-.695-.582l-.379-.079c-.502-.105-.836-.334-.836-.801 0-.114.017-.423.273-.652.22-.202.599-.273.88-.273.097 0 .493 0 .793.212a.906.906 0 0 1 .352.52l-.379.105c-.07-.37-.457-.484-.783-.484-.652 0-.74.343-.74.537 0 .378.396.466.678.52l.335.07c.563.114.889.44.889.942 0 .37-.3.968-1.206.968-.273 0-.951-.044-1.295-.862l.388-.15zM66.082 32.825v-3.222h.396v3.222h-.396zm0-3.98v-.616h.396v.617h-.396zM68.23 32.139c0 .184.027.396.265.396.158 0 .325-.115.449-.203v.405c-.088.07-.256.15-.538.15-.114 0-.413-.009-.51-.29-.044-.115-.044-.353-.044-.529v-2.13h-.678v-.335h.678v-1.374h.387v1.374h.713v.334h-.713v2.201M72.025 29.602l-1.523 3.857c-.255.66-.388 1.004-.863 1.004a.654.654 0 0 1-.423-.132v-.405c.185.132.309.158.423.158.229 0 .3-.14.431-.484l.3-.775-1.119-3.223h.388l.942 2.748 1.048-2.748h.396zM75.794 29.858c-.581 0-1.04.423-1.04 1.391 0 .995.52 1.303 1.03 1.303.503 0 1.049-.325 1.049-1.356-.01-1.012-.537-1.338-1.04-1.338zm-.027 3.046c-.827 0-1.444-.616-1.444-1.655 0-1.004.546-1.726 1.47-1.726 1.004 0 1.445.855 1.453 1.673.01 1.207-.774 1.708-1.479 1.708zM78.91 29.937v2.888h-.395v-2.888H77.8v-.334h.713v-.89c0-.29.036-.748.714-.748.158 0 .264.018.413.044v.396c-.07-.026-.193-.088-.387-.088-.29 0-.343.22-.343.45v.845h.73v.334l-.73-.009zM83.886 28.581l-.934 2.44h1.85l-.916-2.44zm1.602 4.244l-.546-1.444h-2.14l-.545 1.444h-.502l1.946-4.772h.378l1.902 4.772h-.493zM87.055 31.328c0 .44.08.775.353.995.22.185.449.185.563.185.74 0 1.004-.722 1.004-1.347 0-.599-.255-1.268-1.004-1.268-.775 0-.907.775-.907 1.268l-.009.167zm0-1.725v.528c.106-.247.37-.599.978-.599 1.18 0 1.356 1.224 1.356 1.69 0 .485-.238 1.674-1.356 1.674-.564 0-.863-.335-.978-.617v2.254h-.396v-4.93h.396zM90.665 31.328c0 .44.08.775.352.995.22.185.45.185.564.185.74 0 1.004-.722 1.004-1.347 0-.599-.256-1.268-1.004-1.268-.775 0-.907.775-.907 1.268l-.009.167zm0-1.725v.528c.106-.247.37-.599.978-.599 1.18 0 1.356 1.224 1.356 1.69 0 .485-.238 1.674-1.356 1.674-.564 0-.863-.335-.978-.617v2.254h-.396v-4.93h.396zM93.888 32.825v-4.772h.405v4.772h-.405zM95.394 32.825v-3.222h.396v3.222h-.396zm0-3.98v-.616h.396v.617h-.396zM99.162 30.888c-.097-.828-.651-1.004-1.004-1.004-.686 0-.986.555-1.03 1.004h2.034zm-2.034.423c0 .484.203 1.233 1.083 1.233.29 0 .74-.062 1.048-.678l.37.105c-.15.335-.484.933-1.4.933-1.312 0-1.541-1.162-1.541-1.725 0-1.1.74-1.664 1.488-1.664.916 0 1.453.8 1.453 1.637v.062h-2.5v.097zM101.698 32.517c.52 0 .942-.36.942-1.25v-.176c0-1.065-.598-1.198-.915-1.198-.608 0-.978.511-.978 1.312-.008.96.449 1.312.951 1.312zm.925.309v-.582c-.15.423-.564.652-.995.652-.801 0-1.33-.73-1.33-1.69s.537-1.674 1.392-1.674c.422 0 .81.22.933.582v-2.06h.396v4.772h-.396zM108.83 29.198a1.476 1.476 0 0 0-.193-.414c-.133-.194-.458-.484-1.039-.484-.828 0-1.119.449-1.119.854 0 .616.555.775 1.013.89l.458.122c.854.23 1.4.6 1.4 1.356 0 .247-.071.714-.59 1.092-.22.159-.564.335-1.189.335-.916 0-1.585-.396-1.779-1.321l.45-.238c.017.282.044.405.105.537.132.3.493.626 1.215.626.881 0 1.321-.476 1.321-1.013 0-.528-.335-.775-1.013-.951l-.545-.14c-.538-.142-1.295-.397-1.295-1.269 0-.66.484-1.232 1.576-1.232.652 0 1.339.22 1.647 1.047l-.423.203zM112.704 32.112c-.193.414-.563.801-1.294.801-.916 0-1.479-.678-1.479-1.673 0-1.056.642-1.717 1.549-1.717.687 0 1.057.361 1.224.81l-.37.089c-.14-.361-.493-.538-.871-.538-.749 0-1.092.634-1.092 1.339 0 .722.326 1.338 1.065 1.338.405 0 .678-.185.872-.537l.396.088zM113.479 32.825v-3.222h.397v3.222h-.397zm0-3.98v-.616h.397v.617h-.397zM117.248 30.888c-.097-.828-.652-1.004-1.004-1.004-.687 0-.986.555-1.03 1.004h2.034zm-2.043.423c0 .484.202 1.233 1.083 1.233.29 0 .74-.062 1.048-.678l.37.105c-.15.335-.485.933-1.4.933-1.312 0-1.541-1.162-1.541-1.725 0-1.1.739-1.664 1.488-1.664.915 0 1.453.8 1.453 1.637v.062h-2.501v.097zM120.7 32.825v-1.673c0-.431 0-.687-.071-.88-.123-.308-.449-.379-.669-.379-.669 0-.969.502-.969 1.092v1.849h-.396v-3.223h.396v.564c.027-.088.229-.643 1.013-.643.599 0 .881.335.977.555.106.229.115.458.115.907v1.831h-.396zM124.767 32.112c-.193.414-.563.801-1.294.801-.916 0-1.479-.678-1.479-1.673 0-1.056.642-1.717 1.549-1.717.687 0 1.057.361 1.224.81l-.37.089c-.14-.361-.493-.538-.871-.538-.749 0-1.092.634-1.092 1.339 0 .722.326 1.338 1.057 1.338.405 0 .686-.185.871-.537l.405.088zM127.814 30.888c-.097-.828-.652-1.004-1.004-1.004-.686 0-.986.555-1.03 1.004h2.034zm-2.043.423c0 .484.203 1.233 1.083 1.233.291 0 .74-.062 1.048-.678l.37.105c-.15.335-.484.933-1.4.933-1.312 0-1.541-1.162-1.541-1.725 0-1.1.74-1.664 1.488-1.664.916 0 1.453.8 1.453 1.637v.062h-2.501v.097zM129.276 31.91c.052.22.299.634.898.634.625 0 .827-.344.827-.625 0-.273-.158-.467-.695-.582l-.379-.079c-.502-.105-.836-.334-.836-.801 0-.114.017-.423.273-.652.22-.202.598-.273.88-.273.097 0 .493 0 .793.212a.912.912 0 0 1 .352.52l-.379.105c-.07-.37-.458-.484-.783-.484-.652 0-.74.343-.74.537 0 .378.396.466.678.52l.335.07c.563.114.889.44.889.942 0 .37-.3.968-1.206.968-.273 0-.951-.044-1.295-.862l.388-.15zM43.365 10.416h1.18V3.77h-1.18v-1.7h4.825v1.7h-1.021v2.21h2.738v-2.21h-1.021v-1.7h4.825v1.7h-1.18v6.647h1.18v1.7h-4.825v-1.7h1.02V7.678H47.17v2.738h1.02v1.7h-4.824v-1.7zM64.541 6.102h-1.743V3.76h-1.515v6.648h1.506v1.699h-5.635v-1.7h1.505V3.76h-1.505v2.342H55.41V2.06h9.131v4.042zM66.364 3.769h-1.066v-1.7h4.517v1.7h-1.021l1.611 4.825h.027l1.523-4.825h-.916v-1.7h3.61v1.7h-.933l1.629 4.825h.026l1.585-4.825h-1.039v-1.7h4.06v1.7h-1.093l-2.808 8.417h-1.823L72.65 7.6h-.026l-1.505 4.587h-1.85L66.364 3.77zM92.576 4.535c-.44-1.462-1.188-2.307-3.081-2.307-2.351 0-3.523 1.849-3.523 4.614 0 3.363 1.55 4.613 3.69 4.613 1.655 0 2.483-.854 2.958-2.236l.96.52c-.74 1.893-2.157 2.632-4.112 2.632-2.5 0-4.5-1.567-4.5-5.538 0-3.998 2.132-5.539 4.43-5.539 2.087 0 3.363.74 4.19 2.721l-1.012.52zM94.954 1.577h.889v4.481h.026c.44-.907 1.286-1.224 2.122-1.224 1.744 0 2.501 1.004 2.501 2.475v4.807h-.89V7.573c0-1.435-.607-1.91-1.734-1.91-1.065 0-2.025.712-2.025 2.306v4.147h-.89V1.576zM107.325 11.077h-.027c-.44.889-1.285 1.215-2.113 1.215-1.743 0-2.5-1.004-2.5-2.474V5.01h.889v4.543c0 1.436.607 1.911 1.734 1.911 1.066 0 2.026-.713 2.026-2.307V5.01h.889v7.106h-.889l-.009-1.04zM110.75 5.01h.889v.995h.026c.493-.74 1.004-1.171 1.929-1.171.237 0 .413.018.633.026v.766a2.736 2.736 0 0 0-.589-.061c-1.374 0-1.999 1.004-1.999 2.456v4.086h-.889V5.01z"/></svg>