<svg fill="none" xmlns="http://www.w3.org/2000/svg" viewBox="0 0 115 35"><path fill="#4D6A79" d="M49.946 9.444h-1.294L45.21 4.865l-.988.88v3.699h-1.096V0h1.096v4.682L48.505 0h1.299l-3.798 4.105 3.941 5.339zM59.356 4.781c0 1.487-.38 2.658-1.146 3.512-.766.855-1.828 1.28-3.186 1.28-1.393 0-2.465-.42-3.22-1.255-.756-.84-1.137-2.02-1.137-3.547 0-1.516.38-2.687 1.136-3.521C52.56.415 53.636 0 55.033 0c1.36 0 2.416.425 3.182 1.274.76.845 1.14 2.016 1.14 3.507zm-7.528 0c0 1.26.272 2.213.815 2.865.544.652 1.339.978 2.376.978 1.047 0 1.837-.326 2.37-.973.534-.647.801-1.605.801-2.87 0-1.25-.267-2.198-.8-2.845-.534-.647-1.319-.968-2.361-.968-1.047 0-1.843.326-2.386.978-.543.647-.815 1.595-.815 2.835zM68.622 9.444h-1.255l-5.161-7.928h-.05c.07.929.104 1.783.104 2.559v5.369h-1.012V0h1.24l5.146 7.893h.05a50.38 50.38 0 0 1-.06-1.121 23.21 23.21 0 0 1-.034-1.354V0h1.027v9.444h.005zM72.055 5.517v3.927h-1.097V0h2.594c1.16 0 2.015.222 2.568.667.553.444.83 1.111.83 2 0 1.25-.632 2.095-1.902 2.534l2.564 4.243h-1.3l-2.286-3.927h-1.971zm0-.943h1.506c.776 0 1.344-.153 1.705-.464.36-.307.543-.771.543-1.388 0-.623-.183-1.077-.553-1.349-.37-.276-.959-.415-1.773-.415h-1.428v3.616zM85.9 9.444l-1.176-3.003H80.94l-1.16 3.003h-1.112L82.388 0h.953l3.7 9.444H85.9zm-1.522-3.991l-1.096-2.929c-.144-.37-.287-.825-.44-1.363-.094.415-.232.87-.405 1.363l-1.111 2.929h3.052zM95.872 4.628c0 1.561-.424 2.751-1.269 3.576-.845.825-2.065 1.235-3.655 1.235H88.33V0h2.895c1.467 0 2.608.405 3.422 1.22.82.815 1.225 1.951 1.225 3.408zm-1.16.04c0-1.23-.312-2.159-.929-2.786-.617-.622-1.536-.939-2.756-.939H89.43v7.548h1.34c1.308 0 2.29-.321 2.953-.968.657-.638.988-1.59.988-2.855zM48.934 22.222l-.687-2.247h-3.443l-.686 2.247h-2.159l3.32-9.444h2.474l3.334 9.444h-2.153zm-1.161-3.927c-.632-2.035-.988-3.19-1.067-3.457-.079-.267-.138-.48-.173-.632-.143.553-.548 1.916-1.22 4.09h2.46zM60.398 17.406c0 1.556-.444 2.747-1.328 3.571-.885.825-2.164 1.24-3.833 1.24H52.56v-9.444h2.963c1.541 0 2.741.405 3.591 1.22.855.82 1.284 1.956 1.284 3.413zm-2.08.055c0-2.03-.893-3.043-2.686-3.043h-1.067v6.15h.86c1.926 0 2.894-1.038 2.894-3.107zM67.792 22.222h-5.438v-9.449h5.438v1.64h-3.438v2.075h3.196v1.64h-3.196v2.434h3.438v1.66zM78.283 22.222H75.74l-4.11-7.147h-.06c.085 1.264.124 2.163.124 2.702v4.445h-1.788v-9.449h2.524l4.105 7.073h.044c-.064-1.225-.098-2.094-.098-2.603v-4.47h1.802v9.45zM86.754 22.222l-.687-2.247h-3.442l-.687 2.247H79.78l3.319-9.444h2.475l3.334 9.444h-2.154zm-1.16-3.927c-.633-2.035-.988-3.19-1.067-3.457a10.82 10.82 0 0 1-.173-.632c-.144.553-.549 1.916-1.22 4.09h2.46zM97.69 12.773v6.11c0 .697-.158 1.309-.47 1.833-.31.523-.765.928-1.353 1.21-.588.281-1.289.42-2.094.42-1.215 0-2.159-.312-2.83-.934-.672-.622-1.008-1.472-1.008-2.554v-6.085h1.995v5.784c0 .726.149 1.265.44 1.6.292.341.776.51 1.452.51.657 0 1.131-.174 1.423-.515.296-.34.444-.879.444-1.61v-5.769h2zM105.173 22.222h-5.438v-9.449h5.438v1.64h-3.438v2.075h3.196v1.64h-3.196v2.434h3.438v1.66zM109.208 18.597v3.625h-2v-9.449h2.751c1.284 0 2.233.232 2.85.702.618.469.924 1.175.924 2.128 0 .554-.153 1.053-.46 1.482-.306.435-.74.77-1.299 1.018a409.052 409.052 0 0 0 2.776 4.114h-2.222l-2.253-3.625h-1.067v.005zm0-1.63h.647c.633 0 1.102-.104 1.403-.316.302-.213.455-.544.455-.993 0-.45-.153-.766-.46-.958-.306-.188-.785-.287-1.432-.287h-.608v2.554h-.005zM48.731 32.249c0 .854-.306 1.526-.919 2.015-.612.489-1.467.736-2.563.736-1.008 0-1.902-.188-2.677-.568V32.57c.637.286 1.175.484 1.62.602.44.119.844.173 1.21.173.44 0 .776-.084 1.013-.252.237-.168.35-.42.35-.75 0-.183-.05-.351-.153-.494a1.792 1.792 0 0 0-.454-.415c-.203-.134-.608-.346-1.225-.642-.578-.272-1.013-.534-1.3-.78a2.961 2.961 0 0 1-.69-.875c-.174-.33-.258-.721-.258-1.16 0-.835.282-1.492.85-1.971.568-.48 1.348-.717 2.346-.717.49 0 .958.06 1.408.173.444.119.914.282 1.398.49l-.647 1.555a9.633 9.633 0 0 0-1.25-.435 3.922 3.922 0 0 0-.973-.123c-.38 0-.672.089-.874.267a.87.87 0 0 0-.302.691c0 .178.04.331.124.46.084.133.212.256.39.38.178.123.603.346 1.27.662.884.42 1.486.844 1.817 1.27.321.434.49.952.49 1.57zM54.347 35h-2v-7.78h-2.564v-1.664h7.133v1.665h-2.564V35h-.005zM58.733 35v-9.444h2V35h-2zM65.002 35H63.03v-9.444h5.413v1.64h-3.442v2.435h3.205v1.635h-3.205V35zM74.336 35h-2v-7.78h-2.564v-1.664h7.133v1.665H74.34V35h-.005zM86.201 25.556v5.977c0 .696-.158 1.309-.47 1.832a3.08 3.08 0 0 1-1.353 1.21c-.587.282-1.289.42-2.094.42-1.215 0-2.158-.31-2.83-.933-.672-.623-1.008-1.472-1.008-2.554v-5.952h1.996v5.646c0 .726.148 1.264.44 1.6.29.341.775.509 1.451.509.657 0 1.132-.173 1.423-.514.296-.34.445-.879.445-1.61v-5.636h2v.005zM96.954 35H94.41l-4.11-7.147h-.059c.084 1.264.124 2.163.124 2.702V35h-1.788v-9.444H91.1l4.104 7.073h.045c-.064-1.225-.1-2.094-.1-2.603v-4.47h1.804V35zM102.921 29.567h3.749v4.895c-.608.197-1.181.336-1.714.415-.539.079-1.087.118-1.645.118-1.427 0-2.514-.42-3.265-1.254-.75-.84-1.126-2.04-1.126-3.61 0-1.527.435-2.712 1.309-3.567.874-.855 2.079-1.28 3.625-1.28.968 0 1.902.193 2.806.584l-.667 1.6a4.754 4.754 0 0 0-2.154-.519c-.864 0-1.56.292-2.079.874-.524.583-.78 1.364-.78 2.347 0 1.027.212 1.807.632 2.346.42.538 1.032.81 1.832.81.42 0 .84-.045 1.275-.129v-1.97h-1.788v-1.66h-.01zM0 0v35h12.027L32.111 0H0zM23.274 28.179l-3.912 6.82H35v-6.82H23.274zM35 22.32V7.746L26.638 22.32H35z"/></svg>